<svg width="1491" height="350" viewBox="0 0 1491 350" fill="none" xmlns="http://www.w3.org/2000/svg">
<g clip-path="url(#clip0_12_15731)">
<path d="M1316.61 106.54C1316.61 106.54 1314.93 115.78 1311.57 134.26C1311.57 134.26 1348.11 134.26 1421.19 134.26C1421.19 134.26 1417.41 156.38 1409.85 200.62C1409.85 200.62 1373.31 200.62 1300.23 200.62L1280.49 311.5H1208.67L1256.97 38.5H1457.73C1457.73 38.5 1453.67 61.18 1445.55 106.54C1445.55 106.54 1402.57 106.54 1316.61 106.54Z" fill="black"/>
<path fill-rule="evenodd" clip-rule="evenodd" d="M1445.55 106.54H1316.61L1311.57 134.26H1421.19L1409.85 200.62H1300.23L1280.49 311.5H1208.67L1256.97 38.5H1457.73L1445.55 106.54ZM1449.54 134.54H1468.98L1485.29 43.438L1485.29 43.4349C1485.29 43.4347 1485.29 43.4338 1457.73 38.5L1485.29 43.4338L1491.18 10.5H1233.49L1175.28 339.5H1303.94L1323.68 228.62H1409.85C1409.85 228.62 1409.85 228.62 1409.85 200.62L1409.85 228.62H1433.47L1448.79 138.978C1448.79 138.977 1448.79 138.977 1422.83 134.54L1448.79 138.977L1449.54 134.54Z" fill="white"/>
<path d="M990.096 311.5H918.276L966.576 38.5H1045.12C1045.12 38.5 1065.84 91.7 1107.28 198.1L1135.42 38.5H1207.24L1158.94 311.5H1080.4C1080.4 311.5 1059.68 258.3 1018.24 151.9L990.096 311.5Z" fill="black"/>
<path d="M732.354 311.5H641.634L689.934 38.5H778.974C797.454 38.5 814.394 41.44 829.794 47.32C845.194 52.92 858.494 61.32 869.694 72.52C880.894 83.72 888.594 98.56 892.794 117.04C897.274 135.24 897.414 156.1 893.214 179.62C889.574 201.74 882.574 221.34 872.214 238.42C861.854 255.5 849.394 269.36 834.834 280C820.274 290.36 804.314 298.2 786.954 303.52C769.594 308.84 751.394 311.5 732.354 311.5ZM725.214 245.14H750.834C767.634 245.14 782.474 239.82 795.354 229.18C808.514 218.26 817.054 201.74 820.974 179.62C825.454 154.7 822.934 136.36 813.414 124.6C803.894 112.56 790.594 106.54 773.514 106.54H749.574L725.214 245.14Z" fill="black"/>
<path d="M445.579 117.46C431.859 133.14 422.899 152.32 418.699 175C414.779 197.68 416.879 216.86 424.999 232.54C433.399 248.22 447.679 256.06 467.839 256.06C487.999 256.06 505.079 248.22 519.079 232.54C533.079 216.86 542.039 197.68 545.959 175C550.159 152.32 547.919 133.14 539.239 117.46C530.839 101.78 516.559 93.94 496.399 93.94C476.239 93.94 459.299 101.78 445.579 117.46ZM346.879 175C350.519 155.4 356.679 136.92 365.359 119.56C374.319 102.2 385.379 86.66 398.539 72.94C411.979 59.22 428.079 48.3 446.839 40.18C465.879 32.06 486.319 28 508.159 28C525.799 28 541.619 30.66 555.619 35.98C569.619 41.3 580.959 48.58 589.639 57.82C598.319 66.78 605.319 77.56 610.639 90.16C616.239 102.48 619.319 115.78 619.879 130.06C620.439 144.34 619.599 159.32 617.359 175C613.999 194.6 607.839 213.22 598.879 230.86C590.199 248.22 579.139 263.76 565.699 277.48C552.539 291.2 536.439 302.12 517.399 310.24C498.359 318.36 477.919 322.42 456.079 322.42C438.719 322.42 423.039 319.76 409.039 314.44C395.039 309.12 383.699 301.84 375.019 292.6C366.339 283.36 359.199 272.58 353.599 260.26C347.999 247.66 344.919 234.22 344.359 219.94C343.799 205.66 344.639 190.68 346.879 175Z" fill="black"/>
<path d="M105.209 311.5H33.3887L81.6887 38.5H160.229C160.229 38.5 180.949 91.7 222.389 198.1L250.529 38.5H322.349L274.049 311.5H195.509C195.509 311.5 174.789 258.3 133.349 151.9L105.209 311.5Z" fill="black"/>
<path fill-rule="evenodd" clip-rule="evenodd" d="M1013.59 339.5H884.888L943.095 10.5H1064.26L1071.21 28.3383L1045.12 38.5H966.576L918.276 311.5H990.096L1018.24 151.9L1080.4 311.5C1054.31 321.662 1054.31 321.662 1054.3 321.661L1054.3 321.659L1054.3 321.656L1054.3 321.652L1054.3 321.647L1054.3 321.64L1054.29 321.623L1054.27 321.574L1054.27 321.559L1054.26 321.542L1054.25 321.525L1054.2 321.393L1054.18 321.34L1054.17 321.311L1054.11 321.15L1054.09 321.114L1054.08 321.077L1053.96 320.783L1053.94 320.736L1053.93 320.688L1053.89 320.588L1053.87 320.536L1053.85 320.483L1053.83 320.429L1053.78 320.317L1053.76 320.259L1053.74 320.2L1053.56 319.753L1053.51 319.614L1053.48 319.542L1053.36 319.245L1053.33 319.168L1053.3 319.089L1053.27 319.01L1053.24 318.929L1053.04 318.417L1053.01 318.328L1052.97 318.237L1052.94 318.145L1052.71 317.568L1052.67 317.468L1052.59 317.263L1052.43 316.839L1052.3 316.509L1028.44 255.261L1013.59 339.5ZM1158.94 311.5H1080.4L1054.3 321.661L1061.25 339.5H1182.42L1240.62 10.5H1111.92L1097.07 94.7391L1073.21 33.4914L1073.09 33.1608L1072.92 32.737L1072.8 32.432L1072.58 31.8548L1072.54 31.7629L1072.51 31.6722L1072.47 31.5827L1072.44 31.4944L1072.27 31.0713L1072.24 30.9903L1072.21 30.9105L1072.18 30.832L1072.15 30.7547L1072.03 30.4576L1072 30.3863L1071.95 30.2475L1071.78 29.8L1071.75 29.741L1071.73 29.6832L1071.69 29.5711L1071.67 29.5169L1071.65 29.464L1071.63 29.4122L1071.59 29.3124L1071.57 29.2643L1071.55 29.2174L1071.44 28.9233L1071.42 28.8862L1071.41 28.8503L1071.34 28.6889L1071.33 28.6603L1071.31 28.6067L1071.25 28.4576L1071.25 28.4411L1071.24 28.4259L1071.23 28.3876L1071.22 28.3772L1071.22 28.3681L1071.22 28.3602L1071.21 28.3535L1071.21 28.348L1071.21 28.3437L1071.21 28.3407L1071.21 28.3383C1071.21 28.3378 1071.21 28.3383 1045.12 38.5L1107.28 198.1L1135.42 38.5H1207.24L1158.94 311.5Z" fill="white"/>
<path fill-rule="evenodd" clip-rule="evenodd" d="M608.245 339.5L666.453 10.5H778.974C800.378 10.5 820.681 13.9008 839.574 21.0827C858.595 28.0323 875.351 38.5791 889.493 52.721C905.047 68.2755 914.889 88.0855 920.042 110.592C925.604 133.365 925.468 158.163 920.811 184.355C916.652 209.501 908.552 232.502 896.154 252.941C884.085 272.838 869.203 289.564 851.354 302.607L851.211 302.711L851.067 302.814C834.021 314.943 815.342 324.106 795.158 330.291C775.013 336.465 754.039 339.5 732.354 339.5H608.245ZM893.214 179.62C897.414 156.1 897.274 135.24 892.794 117.04C888.594 98.56 880.894 83.72 869.694 72.52C858.494 61.32 845.194 52.92 829.794 47.32C814.394 41.44 797.454 38.5 778.974 38.5H689.934L641.634 311.5H732.354C751.394 311.5 769.594 308.84 786.954 303.52C804.314 298.2 820.274 290.36 834.834 280C849.394 269.36 861.854 255.5 872.214 238.42C882.574 221.34 889.574 201.74 893.214 179.62ZM795.354 229.18C783.199 239.221 769.298 244.524 753.652 245.089C752.719 245.123 751.78 245.14 750.834 245.14H725.214L749.574 106.54H773.514C790.594 106.54 803.894 112.56 813.414 124.6C822.934 136.36 825.454 154.7 820.974 179.62C817.054 201.74 808.514 218.26 795.354 229.18Z" fill="white"/>
<path fill-rule="evenodd" clip-rule="evenodd" d="M424.999 232.54C416.879 216.86 414.779 197.68 418.699 175C422.899 152.32 431.859 133.14 445.579 117.46C459.299 101.78 476.239 93.94 496.399 93.94C516.559 93.94 530.839 101.78 539.239 117.46C547.919 133.14 550.159 152.32 545.959 175C542.039 197.68 533.079 216.86 519.079 232.54C505.079 248.22 487.999 256.06 467.839 256.06C447.679 256.06 433.399 248.22 424.999 232.54ZM319.243 170.462L319.35 169.887C323.455 147.784 330.433 126.803 340.315 107.038L340.396 106.877L340.478 106.718C350.639 87.0311 363.256 69.275 378.332 53.5577L378.434 53.4514L378.537 53.3462C394.674 36.8728 413.847 23.9501 435.717 14.4838L435.786 14.4539L435.855 14.4244C458.557 4.74261 482.756 0 508.159 0C528.606 0 547.878 3.08492 565.565 9.80606C582.752 16.3371 597.849 25.7197 609.897 38.49C621.054 50.0467 629.793 63.6474 636.287 78.9218C643.37 94.6263 647.169 111.394 647.858 128.963C648.491 145.103 647.532 161.783 645.078 178.96L645.023 179.346L644.957 179.731C641.13 202.054 634.1 223.328 623.884 243.459C613.944 263.322 601.238 281.192 585.804 296.969C569.826 313.596 550.538 326.547 528.383 335.996C505.681 345.677 481.483 350.42 456.079 350.42C435.853 350.42 416.733 347.317 399.093 340.614C381.835 334.056 366.684 324.622 354.612 311.771C343.696 300.152 334.891 286.767 328.109 271.846L328.06 271.739L328.013 271.632C320.919 255.671 317.075 238.731 316.381 221.037C315.748 204.897 316.707 188.217 319.161 171.04L319.243 170.462ZM565.699 277.48C579.139 263.76 590.199 248.22 598.879 230.86C607.839 213.22 613.999 194.6 617.359 175C619.599 159.32 620.439 144.34 619.879 130.06C619.319 115.78 616.239 102.48 610.639 90.16C605.319 77.56 598.319 66.78 589.639 57.82C580.959 48.58 569.619 41.3 555.619 35.98C541.619 30.66 525.799 28 508.159 28C486.319 28 465.879 32.06 446.839 40.18C428.079 48.3 411.979 59.22 398.539 72.94C385.379 86.66 374.319 102.2 365.359 119.56C356.679 136.92 350.519 155.4 346.879 175C344.639 190.68 343.799 205.66 344.359 219.94C344.919 234.22 347.999 247.66 353.599 260.26C359.199 272.58 366.339 283.36 375.019 292.6C383.699 301.84 395.039 309.12 409.039 314.44C423.039 319.76 438.719 322.42 456.079 322.42C477.919 322.42 498.359 318.36 517.399 310.24C536.439 302.12 552.539 291.2 565.699 277.48Z" fill="white"/>
<path fill-rule="evenodd" clip-rule="evenodd" d="M128.704 339.5H0L58.2077 10.5H179.372L186.32 28.3383L160.229 38.5H81.6887L33.3887 311.5H105.209L133.349 151.9L195.509 311.5C169.418 321.662 169.418 321.662 169.417 321.661L169.417 321.659L169.416 321.656L169.409 321.64L143.556 255.261L128.704 339.5ZM274.049 311.5H195.509L169.417 321.661L176.365 339.5H297.53L355.737 10.5H227.034L212.181 94.739L186.348 28.4119L186.321 28.3407L186.32 28.3383C186.32 28.3378 186.32 28.3383 160.229 38.5L222.389 198.1L250.529 38.5H322.349L274.049 311.5Z" fill="white"/>
</g>
<defs>
<clipPath id="clip0_12_15731">
<rect width="1491" height="350" fill="white"/>
</clipPath>
</defs>
</svg>
